<?xml version="1.0" encoding="utf-8"?>
<!-- Generator: Adobe Illustrator 27.3.1, SVG Export Plug-In . SVG Version: 6.00 Build 0)  -->
<svg version="1.1" id="Base" xmlns="http://www.w3.org/2000/svg" xmlns:xlink="http://www.w3.org/1999/xlink" x="0px" y="0px"
	 viewBox="0 0 322.9 65.1" style="enable-background:new 0 0 322.9 65.1;" xml:space="preserve">
<style type="text/css">
	.st0{fill:#002855;}
</style>
<g>
	<g>
		<g>
			<path class="st0" d="M45.4,19.6c0,0-4.9,0-5.1,0c0,0.2,0,9.7,0,9.7H29.5c0,0,0-9.5,0-9.7c-0.2,0-5,0-5.2,0c0,0.2,0,9.7,0,9.7
				s-4.5,0-4.6,0c0,0.2,0,4.7,0,4.8c0.2,0,4.6,0,4.6,0s0,11.1,0,11.3c0.2,0,5,0,5.2,0c0-0.2,0-11.3,0-11.3h10.8c0,0,0,11.1,0,11.3
				c0.2,0,5,0,5.2,0C45.5,45.3,45.5,19.8,45.4,19.6C45.5,19.6,45.4,19.6,45.4,19.6z"/>
			<path class="st0" d="M52.1,19.6c0,0.2,0,9.7,0,9.7s-4.6,0-4.7,0c0,0.2,0,4.7,0,4.8c0.2,0,4.7,0,4.7,0s0,11.1,0,11.3
				c0.2,0,16.8,0,17,0c0-0.2,0-4.7,0-4.8c-0.2,0-11.9,0-11.9,0v-6.4c0,0,11,0,11.1,0c0-0.2,0-4.7,0-4.8c-0.2,0-11.1,0-11.1,0v-4.9
				h11.9c0,0,0-4.8,0-4.8C69.1,19.6,52.2,19.6,52.1,19.6z"/>
		</g>
		<g>
			<g>
				<rect x="248.6" y="10.2" class="st0" width="11.9" height="4.6"/>
			</g>
			<path class="st0" d="M260.8,45.5h6l2.1-4.7h10.8l2.1,4.7h6l-13.5-27.4L260.8,45.5z M274.2,28.8l3.5,7.3h-7.1L274.2,28.8z"/>
			<path class="st0" d="M243.6,19.6c0,0.2,0,9.7,0,9.7s-4.2,0-4.4,0c0,0.2,0,4.7,0,4.8c0.2,0,4.4,0,4.4,0s0,11.1,0,11.3
				c0.2,0,17,0,17,0s0-4.7,0-4.8c-0.2,0-11.9,0-11.9,0v-6.4c0,0,11,0,11.1,0c0-0.2,0-4.7,0-4.8c-0.2,0-11.1,0-11.1,0v-4.9
				c0,0,11.7,0,11.9,0c0-0.2,0-4.7,0-4.8C260.5,19.6,243.7,19.6,243.6,19.6z"/>
			<path class="st0" d="M70.4,32.5c0,7.7,6.2,13.7,14.1,13.7c4.4,0,8.4-1.9,11.1-5.3c0,0,0.1-0.2,0.2-0.3c-0.1-0.1-4.1-3-4.2-3.1
				c-0.1,0.1-0.2,0.3-0.2,0.3c-1.6,2.2-4.2,3.4-6.9,3.4c-4.7,0-8.6-4-8.6-8.7c0-4.7,3.9-8.5,8.6-8.5c2.8,0,5.2,1.3,6.8,3.6
				c0,0,4.5-3,4.5-3c-0.1-0.1-0.2-0.3-0.2-0.3c-2.8-3.4-6.7-5.3-11.1-5.3C76.6,19,70.4,24.8,70.4,32.5z"/>
			<path class="st0" d="M124,29.8L111.7,19c0,0,0,26.3,0,26.5c0.2,0,5,0,5.2,0c0-0.2,0-15.2,0-15.2l7.1,6.3l7.1-6.3c0,0,0,15,0,15.2
				c0.2,0,5,0,5.2,0c0-0.2,0-26.5,0-26.5L124,29.8z"/>
			<path class="st0" d="M152.9,19c-7.9,0-14.1,6-14.1,13.7c0,7.7,6.2,13.5,14.1,13.5c7.9,0,14.1-5.8,14.1-13.5
				C166.9,25,160.8,19,152.9,19z M152.9,41.1c-4.6,0-8.6-3.8-8.6-8.4c0-4.7,3.9-8.6,8.6-8.6c4.6,0,8.6,4,8.6,8.6
				C161.4,37.3,157.5,41.1,152.9,41.1z"/>
			<path class="st0" d="M169.4,45.5c0.2,0,5,0,5.2,0c0-0.2,0-15,0-15s16.4,16,16.5,16.1c0-0.4,0-26.7,0-26.9c-0.2,0-5,0-5.2,0
				c0,0.2,0,14.2,0,14.2l-16.5-15.3C169.4,18.6,169.4,45.3,169.4,45.5z"/>
			<path class="st0" d="M213.9,19.6c0,0-19.9,0-20.1,0c0,0.2,0,4.8,0,4.9c0.2,0,7.5,0,7.5,0s0,20.7,0,20.9c0.2,0,5,0,5.2,0
				c0-0.2,0-20.9,0-20.9s7.3,0,7.5,0C214,24.4,214,19.8,213.9,19.6C213.9,19.6,213.9,19.6,213.9,19.6z"/>
			<path class="st0" d="M293.4,19.6c0,0-4.9,0-5.1,0c0,0.2,0,25.7,0,25.8c0.2,0,14.8,0,14.9,0c0-0.2,0-4.8,0-4.9c-0.2,0-9.8,0-9.8,0
				S293.4,19.8,293.4,19.6C293.4,19.6,293.4,19.6,293.4,19.6z"/>
			<path class="st0" d="M232,34.1l0.3-0.1c3.9-0.8,6-2.9,6-6.9c0-4.8-3.2-7.5-8.7-7.5h-12.6c0,0-0.2,0-0.3,0c0,0.1,0,9.4,0,9.7h-4.2
				v4.8h4.2c0,5.7,0,11.2,0,11.3c0.2,0,5,0,5.2,0c0-0.2,0-11.3,0-11.3h4.3c0,0,6.4,11.2,6.5,11.3c0.1,0,5.9,0,6.1,0
				C238.7,45.2,232,34.1,232,34.1z M221.9,29.4v-4.9h8.1c2.3,0,3.1,1.5,3.1,2.7c0,1.2-0.8,2.2-3.1,2.2H221.9z"/>
		</g>
	</g>
</g>
</svg>
