<?xml version="1.0" encoding="utf-8"?>
<!-- Generator: Adobe Illustrator 27.3.1, SVG Export Plug-In . SVG Version: 6.00 Build 0)  -->
<svg version="1.1" id="Base" xmlns="http://www.w3.org/2000/svg" xmlns:xlink="http://www.w3.org/1999/xlink" x="0px" y="0px"
	 viewBox="0 0 1127 1127" style="enable-background:new 0 0 1127 1127;" xml:space="preserve">
<style type="text/css">
	.st0{fill:#FFFFFF;}
	.st1{fill:#002855;}
</style>
<g>
	<rect x="163.5" y="163.4" class="st0" width="800" height="800"/>
</g>
<g>
	<g>
		<path class="st1" d="M378.8,548.4c0,0-31.3,0-32.3,0c0,1,0,61.4,0,61.4h-68.4c0,0,0-60.4,0-61.4c-1,0-31.9,0-32.8,0
			c0,1,0,61.4,0,61.4s-28.5,0-29.4,0c0,1,0,29.7,0,30.7c1,0,29.4,0,29.4,0s0,70.3,0,71.3c1,0,31.8,0,32.8,0c0-1,0-71.3,0-71.3h68.4
			c0,0,0,70.3,0,71.3c1,0,31.8,0,32.8,0c0-1,0-162.4,0-163.4C379.1,548.4,378.8,548.4,378.8,548.4z"/>
		<path class="st1" d="M420.9,548.4c0,1,0,61.4,0,61.4s-28.9,0-29.9,0c0,1,0,29.7,0,30.7c1,0,29.9,0,29.9,0s0,70.3,0,71.3
			c1,0,106.5,0,107.5,0c0-1,0-29.7,0-30.7c-1,0-75.3,0-75.3,0v-40.7c0,0,69.6,0,70.6,0c0-1,0-29.7,0-30.7c-1,0-70.6,0-70.6,0v-30.8
			h75.3c0,0,0.1-30.7,0-30.7C528.4,548.4,421.9,548.4,420.9,548.4z"/>
	</g>
	<path class="st1" d="M537.2,629.6c0,48.5,39.2,86.5,89,86.5c27.9,0,53-12,70.4-33.6c0,0.1,0.9-1.1,1.4-1.7
		c-0.9-0.6-26.1-18.9-26.9-19.5c-0.4,0.5-1.2,1.6-1.2,1.6c-10.4,13.7-26.3,21.6-43.7,21.6c-29.4,0-54.3-25.1-54.3-55
		c0-29.8,24.9-53.7,54.3-53.7c17.6,0,32.9,8,43.2,22.6c0,0,28.6-18.8,28.6-18.8c-0.4-0.5-1.3-1.6-1.3-1.6
		c-17.5-21.7-42.5-33.7-70.4-33.7C576.4,544.2,537.2,581.1,537.2,629.6z"/>
</g>
<g>
	<g>
		<rect x="711.2" y="728.7" class="st1" width="40.5" height="15.6"/>
	</g>
	<path class="st1" d="M752.5,848.8h20.3l7.2-16.1h36.6l7.2,16.1h20.3l-45.8-93.2L752.5,848.8z M798.3,792.2l12.1,24.9h-24
		L798.3,792.2z"/>
	<path class="st1" d="M693.9,761c0,0.6,0,33,0,33s-14.4,0-14.9,0c0,0.5,0,16,0,16.5c0.6,0,14.9,0,14.9,0s0,37.8,0,38.3
		c0.5,0,57.8,0,57.8,0s0-16,0-16.5c-0.6,0-40.5,0-40.5,0v-21.9c0,0,37.4,0,37.9,0c0-0.5,0-16,0-16.5c-0.5,0-37.9,0-37.9,0v-16.6
		c0,0,40,0,40.5,0c0-0.5,0-15.9,0-16.5C751.6,761,694.5,761,693.9,761z"/>
	<path class="st1" d="M287.3,795.7l-42-37c0,0,0,89.6,0,90.1c0.5,0,17.1,0,17.7,0c0-0.5,0-51.7,0-51.7l24.3,21.4l24.3-21.4
		c0,0,0,51.2,0,51.7c0.5,0,17.1,0,17.6,0c0-0.5,0-90.1,0-90.1L287.3,795.7z"/>
	<path class="st1" d="M385.3,758.7c-26.8,0-47.9,20.4-47.9,46.5c0,26.1,21,45.9,47.9,45.9c26.9,0,47.9-19.8,47.9-45.9
		C433.2,779.1,412.2,758.7,385.3,758.7z M385.3,833.9c-15.8,0-29.1-12.8-29.1-28.7c0-15.9,13.3-29.4,29.1-29.4
		c15.8,0,29.1,13.4,29.1,29.4C414.4,821.1,401.1,833.9,385.3,833.9z"/>
	<path class="st1" d="M441.4,848.8c0.5,0,17.1,0,17.6,0c0-0.5,0-51,0-51s55.8,54.5,56,54.7c0-1.2,0-91,0-91.5c-0.6,0-17.1,0-17.7,0
		c0,0.6,0,48.3,0,48.3l-56-52C441.4,757.2,441.4,848.3,441.4,848.8z"/>
	<path class="st1" d="M592.9,761c0,0-67.7,0-68.3,0c0,0.5,0,16.3,0,16.8c0.5,0,25.5,0,25.5,0s0,70.5,0,71c0.5,0,17.1,0,17.6,0
		c0-0.5,0-71,0-71s24.9,0,25.4,0c0-0.5,0-16.3,0-16.8C593.1,761,592.9,761,592.9,761z"/>
	<path class="st1" d="M863.3,761c0,0-16.8,0-17.3,0c0,0.6,0,87.3,0,87.9c0.5,0,50.3,0,50.8,0c0-0.5,0-16.3,0-16.8
		c-0.5,0-33.2,0-33.2,0s0-70.5,0-71C863.5,761,863.3,761,863.3,761z"/>
	<path class="st1" d="M654.4,810.1l1.2-0.2c13.1-2.7,20.4-10,20.4-23.4c0-16.4-10.7-25.6-29.4-25.6h-42.7c0,0-0.8,0-1.1,0
		c0,0.2,0,31.9,0,33.1h-14.3v16.5h14.3c0,19.4,0,38.2,0,38.4c0.5,0,17.1,0,17.6,0c0-0.5,0-38.4,0-38.4h14.5c0,0,21.9,38.1,22,38.4
		c0.3,0,19.9,0,20.8,0C677.2,848,654.4,810.1,654.4,810.1z M620.4,794v-16.7h27.5c7.7,0,10.5,5.1,10.5,9.3c0,4.1-2.8,7.4-10.5,7.4
		H620.4z"/>
</g>
</svg>
